# xmcd
#
# Track frame offsets: 
#        150
#        9002
#        21069
#        33910
#        46116
#        57535
#        69747
#        80307
#        87817
#        99913
#
# Disc length: 1473 seconds
#
# Revision: 0
# Processed by: cddbd v1.5.2PL0 Copyright (c) Steve Scherf et al.
# Submitted via: ExactAudioCopy v0.95b4
#
DISCID=6705bf0a
DTITLE=Various Artist - Outlaw Country Born Outlaws
DYEAR=2006
DGENRE=Outlaw Country
TTITLE0=David Allan Coe - Fuzzy Was An Outlaw
TTITLE1=Johnny Paycheck - Born Hell Raiser
TTITLE2=Johnny Cash - Folsom Prison Blues
TTITLE3=Hank Williams - Lost Highway
TTITLE4=George Jones - White Lightning
TTITLE5=Merle Haggard - Wrokin' Man Blues
TTITLE6=Waylon Jennings - Only Daddy That'll Walk the Line (Live)
TTITLE7=Willie Nelson - I gotta Get Drunk
TTITLE8=Johnny Lee - Hey Bartender
TTITLE9=Webb Pierce - In the Jailhouse Now
EXTD=
EXTT0=
EXTT1=
EXTT2=
EXTT3=
EXTT4=
EXTT5=
EXTT6=
EXTT7=
EXTT8=
EXTT9=
PLAYORDER=
